<?xml version="1.0" standalone="no"?>
<!DOCTYPE svg PUBLIC "-//W3C//DTD SVG 20010904//EN"
 "http://www.w3.org/TR/2001/REC-SVG-20010904/DTD/svg10.dtd">
<svg version="1.0" xmlns="http://www.w3.org/2000/svg"
 width="1415.000000pt" height="1415.000000pt" viewBox="0 0 1415.000000 1415.000000"
 preserveAspectRatio="xMidYMid meet">

<g transform="translate(0.000000,1415.000000) scale(0.100000,-0.100000)"
fill="#000000" stroke="none">
<path d="M6180 14108 c-113 -7 -336 -38 -415 -57 -22 -6 -67 -17 -100 -26 -33
-9 -76 -20 -96 -25 -19 -5 -49 -16 -65 -25 -16 -8 -41 -15 -55 -15 -15 0 -32
-7 -39 -15 -7 -8 -28 -17 -49 -21 -20 -3 -53 -17 -73 -30 -21 -13 -46 -24 -56
-24 -10 0 -39 -13 -65 -30 -26 -16 -59 -33 -75 -36 -15 -3 -44 -20 -65 -36
-21 -16 -59 -39 -85 -50 -26 -11 -69 -38 -95 -60 -26 -22 -80 -59 -118 -83
-129 -77 -520 -469 -586 -587 -17 -29 -50 -75 -73 -103 -23 -27 -53 -74 -66
-103 -14 -30 -38 -70 -53 -90 -16 -21 -34 -54 -39 -74 -6 -20 -22 -52 -36 -71
-14 -19 -26 -42 -26 -53 0 -10 -11 -37 -25 -59 -13 -22 -25 -48 -25 -58 0 -10
-9 -35 -20 -57 -11 -22 -21 -47 -23 -57 -2 -10 -10 -38 -19 -63 -9 -25 -24
-72 -33 -105 -9 -33 -21 -73 -26 -90 -16 -56 -39 -200 -59 -361 -19 -156 -20
-218 -18 -1945 3 -1674 4 -1786 21 -1823 9 -21 17 -48 17 -59 0 -20 91 -167
134 -216 34 -38 182 -129 244 -150 142 -48 320 -40 427 17 22 12 48 22 58 22
24 0 209 180 229 222 38 83 56 126 68 168 11 37 15 387 19 1875 5 1335 9 1838
17 1860 7 17 17 57 24 90 6 33 16 68 21 77 5 10 9 28 9 40 0 13 7 37 16 53 9
17 22 49 29 72 7 23 21 54 32 70 11 15 25 43 32 62 6 19 28 57 49 85 21 28 47
68 58 89 44 88 252 297 355 358 30 17 77 48 104 69 28 20 65 41 82 44 18 4 43
16 57 27 14 11 51 29 83 40 32 11 78 27 103 35 25 9 64 20 88 25 23 5 61 13
85 18 128 28 191 33 351 29 94 -3 194 -11 221 -17 28 -7 66 -17 85 -21 116
-27 288 -86 310 -105 8 -7 38 -22 65 -32 28 -11 73 -36 100 -57 28 -21 75 -53
105 -70 71 -39 276 -245 317 -317 17 -29 49 -79 72 -109 22 -30 46 -70 52 -90
7 -19 21 -48 32 -63 10 -16 26 -49 33 -74 8 -25 18 -51 23 -57 6 -7 14 -30 20
-51 6 -22 17 -67 26 -100 8 -33 17 -71 20 -85 2 -14 9 -54 16 -90 8 -48 11
-980 13 -3505 1 -2665 5 -3445 14 -3462 7 -12 12 -34 12 -50 0 -16 6 -37 13
-48 7 -11 19 -40 26 -64 10 -34 35 -66 119 -150 64 -65 121 -112 142 -120 19
-7 55 -21 80 -31 87 -36 137 -43 239 -36 56 3 111 12 127 21 16 8 39 15 50 15
12 0 32 8 45 19 13 10 48 30 77 45 75 38 124 86 162 158 18 35 39 70 47 79 14
17 34 80 55 169 7 30 10 1165 9 3468 l-2 3424 -24 192 c-24 190 -34 244 -61
340 -8 26 -14 57 -14 67 0 10 -4 21 -10 24 -5 3 -10 16 -10 28 0 12 -9 45 -20
74 -12 29 -30 79 -41 110 -12 32 -32 79 -45 104 -13 26 -24 54 -24 63 0 9 -11
33 -25 54 -13 20 -30 53 -36 72 -6 19 -25 52 -40 72 -16 21 -39 59 -50 85 -11
26 -44 76 -73 113 -30 36 -61 81 -71 100 -27 54 -77 112 -240 278 -161 165
-289 279 -345 307 -19 10 -64 41 -100 70 -36 29 -90 64 -120 79 -30 14 -70 37
-89 51 -18 14 -48 29 -65 33 -17 5 -49 21 -70 36 -21 14 -46 26 -55 26 -9 0
-34 11 -56 25 -22 13 -49 25 -60 25 -11 0 -35 9 -53 20 -18 11 -42 20 -53 20
-11 0 -33 7 -48 15 -16 8 -46 19 -67 24 -22 5 -66 17 -99 26 -64 17 -137 34
-170 40 -280 46 -493 59 -725 43z"/>
<path d="M6126 10340 c-27 -5 -54 -14 -59 -19 -6 -6 -23 -11 -37 -11 -15 0
-50 -17 -81 -39 -30 -22 -72 -53 -95 -69 -49 -36 -174 -208 -174 -240 0 -13
-8 -37 -17 -55 -17 -30 -18 -218 -18 -3542 0 -2748 3 -3523 12 -3570 7 -33 15
-82 18 -110 2 -27 9 -70 15 -95 6 -25 13 -63 16 -85 3 -22 9 -49 14 -60 4 -11
15 -52 24 -91 9 -40 23 -85 31 -100 8 -16 15 -37 15 -47 0 -10 9 -35 20 -57
11 -22 20 -47 20 -57 0 -10 7 -29 16 -41 8 -12 22 -44 30 -71 8 -27 21 -54 28
-61 8 -6 22 -33 31 -60 9 -27 25 -61 37 -75 11 -14 33 -52 48 -83 15 -31 43
-75 61 -98 19 -22 45 -62 59 -88 68 -134 531 -598 689 -691 37 -22 86 -55 108
-73 23 -18 66 -43 95 -56 30 -13 59 -31 66 -39 7 -8 27 -20 45 -27 18 -6 59
-24 92 -40 117 -56 172 -80 184 -80 6 0 29 -9 51 -20 22 -11 48 -20 59 -20 11
0 35 -6 53 -14 32 -13 104 -35 183 -54 196 -49 462 -78 679 -75 206 3 523 44
666 87 30 10 71 21 90 26 45 10 94 28 148 51 23 11 50 19 60 19 9 0 35 11 57
25 22 13 49 25 60 25 11 0 40 14 65 30 25 16 52 30 61 30 10 0 41 16 70 36 30
20 68 41 84 47 17 5 62 33 100 62 39 29 86 61 105 70 47 24 60 35 217 177 169
154 387 392 443 483 23 39 57 88 75 110 17 22 42 62 54 89 12 28 33 65 47 84
14 18 30 50 36 70 6 20 20 50 33 67 13 16 26 46 30 65 4 19 16 47 26 62 11 14
19 34 19 43 0 10 8 36 19 59 34 76 84 251 111 391 7 33 16 71 20 85 32 97 35
260 34 2075 0 1270 -3 1823 -11 1855 -14 58 -48 147 -65 168 -97 126 -220 236
-282 253 -21 6 -50 18 -64 27 -20 13 -53 16 -166 16 -162 0 -191 -6 -301 -64
-115 -60 -194 -141 -250 -255 -24 -49 -46 -103 -50 -120 -3 -16 -10 -50 -15
-75 -5 -25 -9 -817 -10 -1800 0 -1819 1 -1767 -38 -1970 -4 -25 -14 -55 -20
-67 -7 -12 -12 -32 -12 -45 0 -13 -6 -32 -13 -43 -8 -11 -17 -35 -20 -53 -4
-19 -16 -47 -28 -63 -11 -16 -25 -46 -31 -67 -6 -20 -23 -53 -38 -72 -15 -19
-39 -57 -53 -85 -53 -105 -344 -397 -435 -436 -23 -10 -63 -34 -89 -54 -25
-19 -53 -35 -62 -35 -9 0 -38 -14 -66 -30 -27 -16 -58 -30 -68 -30 -9 0 -34
-9 -54 -20 -21 -11 -50 -20 -65 -20 -15 0 -29 -4 -32 -9 -3 -4 -22 -11 -43
-14 -21 -3 -67 -12 -103 -20 -187 -42 -520 -27 -685 29 -23 8 -48 14 -58 14
-9 0 -34 9 -54 20 -21 11 -47 20 -59 20 -12 0 -33 9 -48 21 -14 11 -43 25 -64
31 -20 5 -53 22 -72 37 -19 15 -64 43 -100 61 -87 45 -394 349 -429 425 -13
27 -41 74 -62 104 -22 30 -39 60 -39 68 0 7 -13 39 -30 70 -16 31 -30 65 -30
77 0 12 -7 30 -15 40 -8 11 -15 31 -15 44 0 13 -5 33 -12 45 -6 12 -15 40 -19
62 -4 22 -14 60 -20 85 -10 35 -14 794 -18 3535 -5 2574 -9 3495 -17 3510 -7
11 -15 39 -19 62 -3 23 -13 47 -21 54 -7 6 -19 29 -25 51 -7 28 -34 64 -91
124 -66 69 -96 92 -162 124 -45 21 -99 44 -121 50 -55 15 -220 21 -279 10z"/>
<path d="M10590 9784 c-122 -18 -166 -29 -194 -48 -14 -9 -34 -16 -45 -16 -10
0 -42 -15 -70 -34 -28 -19 -68 -41 -89 -48 -56 -20 -261 -227 -294 -298 -14
-30 -38 -70 -52 -89 -14 -19 -26 -43 -26 -53 0 -11 -8 -33 -17 -51 -20 -39
-30 -82 -50 -217 -13 -88 -14 -125 -4 -230 7 -69 16 -129 22 -134 5 -6 9 -21
9 -35 0 -15 12 -48 25 -76 14 -27 25 -56 25 -64 0 -7 15 -34 33 -60 19 -25 44
-67 57 -92 28 -59 190 -220 250 -250 25 -12 66 -37 91 -56 26 -18 53 -33 61
-33 7 0 30 -8 51 -19 20 -10 54 -22 74 -26 21 -4 43 -10 48 -15 6 -4 62 -13
125 -20 118 -11 323 1 345 21 5 5 21 9 35 9 14 0 42 9 63 20 20 11 44 20 53
20 8 0 45 18 81 40 37 22 73 40 80 40 8 0 73 58 146 129 92 90 137 141 146
168 8 21 29 60 47 88 19 27 34 58 34 68 0 10 8 32 17 50 20 40 30 83 50 221
13 98 13 121 0 220 -22 154 -51 260 -89 317 -8 13 -28 51 -43 84 -41 86 -254
299 -345 344 -36 18 -81 40 -100 51 -69 36 -138 54 -280 75 -113 17 -157 17
-270 -1z"/>
<path d="M3890 6620 c-14 -4 -52 -14 -85 -21 -33 -7 -81 -23 -107 -36 -26 -13
-54 -23 -63 -23 -9 0 -42 -17 -73 -39 -31 -21 -83 -54 -116 -72 -72 -42 -172
-148 -210 -223 -16 -31 -42 -73 -58 -93 -15 -20 -31 -48 -34 -62 -2 -14 -12
-39 -21 -56 -9 -16 -19 -46 -24 -65 -4 -19 -15 -66 -23 -105 -9 -38 -18 -100
-21 -136 -5 -80 27 -311 49 -354 9 -16 16 -38 16 -48 0 -11 8 -31 19 -45 10
-15 24 -44 31 -65 32 -100 326 -392 419 -417 21 -5 44 -17 51 -25 7 -8 31 -20
54 -25 22 -6 50 -15 61 -20 33 -16 175 -40 255 -44 113 -5 275 18 345 49 17 8
46 18 65 23 19 5 53 21 75 36 22 15 54 30 70 33 45 9 318 284 335 338 7 22 23
54 36 72 14 18 27 47 30 65 4 18 12 42 19 53 28 46 53 190 54 310 1 184 -29
310 -115 477 -27 52 -133 197 -174 238 -38 38 -183 145 -233 172 -80 43 -138
68 -157 68 -11 0 -28 4 -38 9 -59 33 -356 54 -432 31z"/>
</g>
</svg>
