<svg width="202" height="35" viewBox="0 0 202 35" fill="none" xmlns="http://www.w3.org/2000/svg">
<path d="M94.6812 21.6442C94.5253 17.1974 98.134 12.3447 103.995 12.3389C109.542 12.3389 113.31 16.8798 113.313 21.6648C113.306 24.1562 112.311 26.5432 110.547 28.3025C108.782 30.0617 106.393 31.0495 103.901 31.0495C98.6545 30.9819 94.4812 26.5351 94.6812 21.6442Z" fill="#6C6C76"/>
<path d="M43.1272 25.0652C43.6948 24.871 43.7154 24.3328 43.8801 23.9211C44.6889 21.8624 45.4565 19.8036 46.2329 17.7449C46.9505 15.8607 47.675 13.9756 48.4063 12.0894C48.5179 11.8379 48.6426 11.5925 48.7798 11.3541C49.2327 11.5835 49.2651 11.9894 49.3915 12.3188C50.8248 16.0441 52.2502 19.7693 53.6678 23.4946C53.8648 24.0122 54.0942 24.5181 54.3648 25.1593C54.6177 24.9358 54.8442 24.8298 54.9118 24.6622C55.4236 23.3976 55.9059 22.1241 56.3823 20.8389C57.4195 18.1194 58.4577 15.399 59.4969 12.6776C59.6792 12.1982 59.8939 11.7306 60.0851 11.2454C61.1023 11.0574 62.1435 11.0376 63.1672 11.1865C63.2025 11.3395 63.2613 11.4453 63.2349 11.5188C60.4899 18.8125 57.7322 26.1033 54.9618 33.3912C54.8685 33.5943 54.7614 33.7908 54.6413 33.9794C54.1619 33.9147 54.1236 33.5529 54.0089 33.2617L50.9385 25.2328C50.418 23.8741 49.9003 22.5123 49.371 21.1536C49.2563 20.8595 49.1916 20.5007 48.7592 20.4331C48.2828 20.7919 48.2004 21.3771 48.0034 21.9036C46.5839 25.5857 45.1741 29.2708 43.7742 32.9588C43.6272 33.3441 43.536 33.7588 43.086 34.1146C42.991 33.9917 42.9082 33.8596 42.839 33.7205C40.0009 26.3121 37.1658 18.9008 34.3101 11.4012C34.5275 11.2838 34.7601 11.1967 35.0012 11.1424C35.7953 11.1189 36.5893 11.1424 37.2746 11.1424C37.8628 11.5335 37.9363 12.0776 38.1157 12.5482C39.548 16.2774 40.9626 20.0095 42.3978 23.724C42.5978 24.1975 42.686 24.7328 43.1272 25.0652Z" fill="#6C6C76"/>
<path d="M201.442 31.035C201.575 32.0739 201.575 33.1254 201.442 34.1642C201.383 34.2282 201.319 34.2881 201.251 34.3437C201.209 34.3647 201.163 34.3766 201.116 34.3789C200.884 34.3966 200.648 34.426 200.416 34.426C195.105 34.426 189.794 34.426 184.485 34.426C184.321 34.4086 184.159 34.3791 183.999 34.3378C183.918 34.0885 183.853 33.834 183.805 33.576C183.782 33.2482 183.776 32.9193 183.788 32.5908C183.788 26.052 183.788 19.5151 183.788 12.9801C183.788 12.4243 183.699 11.8537 183.964 11.2802C184.423 11.0008 184.949 11.092 185.452 11.0891C189.401 11.0891 193.349 11.0891 197.296 11.0891C198.284 11.0891 199.269 11.0891 200.257 11.0891C200.622 11.0891 200.984 11.1655 201.416 11.2126C201.598 12.2449 201.498 13.2125 201.484 14.1536C200.957 14.5418 200.422 14.4183 199.922 14.4183C196.21 14.4183 192.499 14.4183 188.784 14.4183C188.364 14.4183 187.94 14.4183 187.52 14.4595C187.374 14.4536 187.231 14.5041 187.122 14.6005C187.012 14.6969 186.944 14.8318 186.931 14.9771C186.876 16.5211 186.714 18.0681 187.023 19.6033C187.023 19.6445 187.081 19.6768 187.129 19.7356C187.581 20.015 188.111 19.8974 188.617 19.9003C191.669 19.9003 194.725 19.9003 197.781 19.9003C198.29 19.9003 198.801 19.921 199.298 19.9298C199.71 20.4974 199.578 21.0768 199.593 21.6209C199.651 22.1699 199.609 22.725 199.469 23.259C198.981 23.6619 198.446 23.5531 197.943 23.5531C195.263 23.5531 192.584 23.5531 189.905 23.5531C189.296 23.5531 188.684 23.5531 188.073 23.5531C187.752 23.5531 187.434 23.6325 187.07 23.6796C186.696 24.8207 186.893 25.953 186.881 27.0588C186.87 28.1646 186.755 29.3086 186.984 30.3968C187.452 30.8203 187.99 30.7174 188.493 30.7233C190.184 30.738 191.878 30.7233 193.569 30.7233C195.628 30.7233 197.704 30.7233 199.772 30.7233C200.29 30.7792 200.825 30.6939 201.442 31.035Z" fill="#33539E"/>
<path d="M144.079 19.3912H141.032C140.838 19.0265 140.638 18.6618 140.444 18.2912C139.975 17.3672 139.326 16.5463 138.535 15.8767C136.259 13.9562 133.241 13.8444 130.888 15.6532C130.257 16.1394 129.702 16.7173 129.241 17.3678C128.146 18.9423 127.577 20.8226 127.615 22.74C127.653 24.6574 128.296 26.5138 129.453 28.0436C130.994 30.0523 133.032 31.0611 135.609 30.6229C137.582 30.2876 139 29.0994 140.076 27.4672C140.37 27.0407 140.602 26.5848 140.882 26.1231C141.93 26.0284 142.985 26.0235 144.035 26.1085C144.016 26.4186 143.971 26.7266 143.899 27.029C143.222 29.0967 141.975 30.9316 140.302 32.3228C136.673 35.2638 131.818 35.1109 128.359 31.8934C126.133 29.8347 124.93 27.2289 124.603 24.2232C124.34 22.1636 124.547 20.071 125.209 18.103C125.894 16.0385 127.141 14.2055 128.809 12.8092C130.42 11.4442 132.464 10.6969 134.576 10.7012C136.688 10.7055 138.729 11.4611 140.335 12.8327C142.223 14.4159 143.561 16.5563 144.158 18.9471C144.151 19.0979 144.124 19.2471 144.079 19.3912Z" fill="#33539E"/>
<path d="M166.007 34.3554C164.698 34.4582 163.384 34.4582 162.075 34.3554C161.837 33.8877 161.596 33.4377 161.378 32.976C159.46 28.8919 157.543 24.8078 155.625 20.7238C155.455 20.3591 155.396 19.8855 154.896 19.7297C154.44 20.0385 154.308 20.5649 154.108 21.0208C152.243 24.9735 150.385 28.9301 148.535 32.8907C148.314 33.3553 148.079 33.8142 147.858 34.2583C147.176 34.5347 146.511 34.3848 145.864 34.4112C145.217 34.4377 144.65 34.4112 144.114 34.4112C143.782 33.973 144.047 33.6847 144.173 33.4112C144.976 31.6613 145.802 29.9203 146.62 28.1734C149.077 22.9423 151.532 17.7082 153.987 12.4713C154.167 12.0889 154.352 11.7096 154.575 11.342C154.611 11.2806 154.661 11.2292 154.721 11.1923C154.782 11.1555 154.85 11.1345 154.921 11.1313C154.992 11.1281 155.062 11.1427 155.125 11.1739C155.189 11.205 155.244 11.2517 155.284 11.3096C155.44 11.5441 155.577 11.7898 155.696 12.0448C159.051 19.1934 162.401 26.344 165.748 33.4965C165.852 33.7771 165.939 34.064 166.007 34.3554Z" fill="#33539E"/>
<path d="M40.432 34.2784C39.0291 34.4931 37.8674 34.3695 36.7881 34.3871C36.2293 34.0342 36.0999 33.5048 35.8822 33.049C34.0451 29.1433 32.2119 25.2328 30.3826 21.3173C30.1826 20.8938 29.9914 20.4644 29.762 20.0556C29.6516 19.9162 29.5207 19.7942 29.3738 19.6939C28.8621 20.0321 28.7327 20.5526 28.515 21.0114C26.6328 25.0034 24.7525 28.9953 22.8742 32.9872C22.6565 33.446 22.4036 33.8901 22.1624 34.3431C20.8802 34.4107 19.6832 34.4901 18.4832 34.3018C18.3744 33.7136 18.6891 33.3343 18.8803 32.9255C21.4429 27.4356 24.0123 21.9526 26.5887 16.4764C27.2886 14.9883 27.9886 13.5011 28.6885 12.0149C28.8444 11.6884 28.9473 11.3061 29.3738 11.1826C29.9296 11.4297 30.0208 11.9826 30.2326 12.4296C31.6619 15.4412 33.0706 18.4616 34.4853 21.4791C36.2499 25.2201 38.0047 28.96 39.7497 32.699C39.9644 33.1578 40.1526 33.6284 40.432 34.2784Z" fill="#6C6C76"/>
<path d="M87.9199 11.1654C87.567 12.4006 79.3587 30.1673 77.5852 33.5847C77.4767 33.7682 77.3558 33.9441 77.2235 34.1112C76.6617 34.0435 76.6059 33.6053 76.4559 33.2936C75.1883 30.6202 73.9384 27.935 72.6826 25.2557C70.7219 21.0854 68.7661 16.915 66.8153 12.7447C66.6035 12.2888 66.427 11.8154 66.2271 11.3272C66.4329 11.2272 66.5476 11.1243 66.6711 11.1184C67.827 11.0264 68.989 11.0442 70.1415 11.1713C70.3798 11.6389 70.6474 12.1271 70.8827 12.6418C72.663 16.4259 74.4403 20.2119 76.2147 23.9999C76.4324 24.4587 76.6765 24.9087 76.8882 25.3234C77.4941 25.3234 77.5441 24.8735 77.6882 24.5676C78.7646 22.3207 79.8116 20.062 80.8674 17.8033C81.7066 16.0171 82.5447 14.2309 83.382 12.4448C83.5819 12.0213 83.7996 11.6095 84.0319 11.1418C85.326 11.0337 86.6272 11.0416 87.9199 11.1654Z" fill="#33539E"/>
<path d="M180.807 11.119C180.942 12.1715 180.942 13.2369 180.807 14.2894C180.436 14.3501 180.062 14.3914 179.686 14.4129C178.089 14.4277 176.492 14.4129 174.895 14.4129C174.434 14.4129 173.96 14.3629 173.507 14.61C173.213 15.0923 173.31 15.6187 173.31 16.1246C173.31 19.9302 173.31 23.7369 173.31 27.5445V34.1265C172.381 34.4824 172.022 34.5029 170.416 34.2971C170.329 34.0082 170.263 33.7133 170.219 33.4148C170.181 32.9942 170.202 32.5707 170.202 32.1472C170.202 26.8828 170.202 21.6194 170.202 16.3569C170.202 15.7687 170.319 15.1305 169.907 14.5423C168.819 14.3012 167.69 14.463 166.572 14.4218C165.455 14.3806 164.325 14.5041 163.146 14.3218C162.852 13.3071 162.94 12.3071 163.064 11.2778C163.637 10.9837 164.208 11.0778 164.758 11.0778C169.501 11.0778 174.243 11.0778 178.986 11.0778C179.548 11.0778 180.107 11.1014 180.807 11.119Z" fill="#33539E"/>
<path d="M15.5624 30.8937C15.9388 31.9642 15.7829 32.9024 15.7506 33.8347C15.7476 33.9788 15.689 34.1162 15.587 34.2181C15.4851 34.3201 15.3477 34.3787 15.2035 34.3817C14.9242 34.4081 14.6418 34.4082 14.3624 34.4082C10.0901 34.4082 5.81682 34.4082 1.54256 34.4082C1.17493 34.4082 0.807304 34.3611 0.366153 34.3317C0.288372 34.0593 0.227477 33.7823 0.183812 33.5023C0.151461 33.1759 0.183812 32.8465 0.183812 32.5171C0.183812 26.0312 0.183812 19.5472 0.183812 13.0652C0.183812 12.5065 0.210285 11.9506 0.22499 11.3742C1.16611 10.986 2.03371 11.1153 2.8719 11.2212C3.27188 11.5918 3.166 12.0388 3.166 12.4476C3.166 14.2799 3.166 16.1122 3.166 17.9444C3.166 21.6589 3.166 25.3704 3.166 29.082C3.166 30.7613 3.23658 30.8466 4.90707 30.8466C7.91278 30.8466 10.9185 30.8466 13.9213 30.8466C14.4507 30.8378 14.9624 30.8731 15.5624 30.8937Z" fill="#6C6C76"/>
<path d="M115.438 10.6066C114.767 10.0478 114.291 9.63019 113.791 9.24492C113.309 8.87075 112.808 8.52129 112.291 8.1979C111.73 7.85473 111.149 7.54445 110.553 7.26857C109.956 6.99318 109.343 6.75453 108.717 6.55392C108.139 6.37587 107.549 6.23533 106.953 6.13331C106.307 6.01594 105.655 5.93645 105 5.89514C104.344 5.85543 103.686 5.85543 103.029 5.89514C102.375 5.93576 101.723 6.01327 101.077 6.12742C100.475 6.22754 99.8803 6.3681 99.2973 6.54803C98.6715 6.74736 98.0586 6.98503 97.4621 7.25974C96.8656 7.53416 96.2853 7.84246 95.724 8.18318C95.2036 8.50281 94.7009 8.85036 94.2182 9.22431C93.7035 9.62135 93.2212 10.0596 92.7006 10.4978C92.7006 10.3654 92.6447 10.2654 92.6771 10.2037C94.0054 7.92528 95.649 5.84601 97.5591 4.02757C98.4073 3.21552 99.3266 2.48126 100.306 1.83359C102.759 0.274854 105.27 0.310146 107.735 1.83359C109.034 2.67973 110.22 3.68776 111.264 4.8334C112.747 6.40779 114.063 8.1316 115.19 9.97722C115.287 10.1812 115.37 10.3915 115.438 10.6066Z" fill="#33539E"/>
<path d="M113.156 34.9883C118.418 30.515 120.088 25.78 119.835 20.0098C119.965 20.0892 120.106 20.1244 120.129 20.2009C121.176 22.9802 121.932 25.8212 121.944 28.8181C121.953 29.0999 121.941 29.382 121.909 29.6621C121.679 31.4679 120.8 32.8179 119.132 33.6208C118.201 34.0657 117.211 34.3727 116.191 34.5324C115.186 34.6942 114.171 34.8354 113.156 34.9883Z" fill="#33539E"/>
<path d="M88.1679 19.541C87.6346 25.8387 89.8776 30.906 94.8969 34.7431C94.7734 34.849 94.7057 34.9519 94.6499 34.946C93.1617 34.7725 91.6706 34.6196 90.2383 34.1725C87.2091 33.2344 85.9533 31.5256 86.018 28.3552C86.0455 27.6054 86.1261 26.8585 86.2592 26.1201C86.5809 23.8478 87.2236 21.6327 88.1679 19.541Z" fill="#33539E"/>
</svg>
