<?xml version="1.0" standalone="no"?>
<!DOCTYPE svg PUBLIC "-//W3C//DTD SVG 20010904//EN"
 "http://www.w3.org/TR/2001/REC-SVG-20010904/DTD/svg10.dtd">
<svg version="1.0" xmlns="http://www.w3.org/2000/svg"
 width="1200.000000pt" height="1200.000000pt" viewBox="0 0 1200.000000 1200.000000"
 preserveAspectRatio="xMidYMid meet">

<g transform="translate(0.000000,1200.000000) scale(0.100000,-0.100000)"
fill="#000000" stroke="none">
<path d="M6507 9700 c-88 -23 -173 -92 -218 -179 -34 -66 -38 -178 -9 -256 22
-58 61 -99 1318 -1357 l1297 -1298 -3400 -2 -3400 -3 -47 -23 c-65 -32 -125
-94 -156 -160 -39 -82 -38 -194 1 -274 34 -68 108 -139 175 -165 45 -17 174
-18 3430 -23 l3383 -5 -1284 -1285 c-1023 -1025 -1287 -1295 -1307 -1335 -34
-72 -39 -181 -11 -256 28 -75 85 -138 157 -174 52 -27 69 -30 149 -30 80 0 96
3 141 28 37 21 482 460 1641 1620 1547 1548 1591 1594 1613 1652 28 77 24 178
-10 251 -18 40 -326 353 -1604 1632 -1396 1398 -1588 1586 -1641 1612 -67 33
-156 45 -218 30z"/>
</g>
</svg>
